<svg xmlns="http://www.w3.org/2000/svg" xmlns:xlink="http://www.w3.org/1999/xlink" width="30" height="30" viewBox="0 0 384 384"><g id="surface1"><path style="stroke:none;fill-rule:nonzero;fill:#000;fill-opacity:1" d="M384 192C384 85.949219 298.050781.0 192 0 85.949219.0.0 85.949219.0 192c0 90 62.023438 165.601562 145.648438 186.375V250.648438H106.050781V192h39.597657V166.726562c0-65.328124 29.550781-95.625 93.75-95.625 12.152343.0 33.152343 2.398438 41.777343 4.796876V129c-4.5-.449218999999999-12.375-.75-22.199219-.75-31.5.0-43.652343 11.925781-43.652343 42.898438V192h62.699219l-10.796876 58.648438H215.25V382.574219C310.351562 371.101562 384 290.175781 384 192zm0 0"/></g></svg>