<svg xmlns="http://www.w3.org/2000/svg" xmlns:xlink="http://www.w3.org/1999/xlink" width="30" height="30" viewBox="0 0 372 384"><g id="surface1"><path style="stroke:none;fill-rule:nonzero;fill:#000;fill-opacity:1" d="M124.425781 298.050781C124.425781 299.550781 122.699219 300.75 120.523438 300.75 118.050781 300.976562 116.324219 299.773438 116.324219 298.050781c0-1.5 1.726562-2.69921899999997 3.902343-2.69921899999997C122.476562 295.125 124.425781 296.324219 124.425781 298.050781zm-23.324219-3.375C100.574219 296.175781 102.074219 297.898438 104.324219 298.351562c1.949219.75 4.199219.0 4.652343-1.5C109.425781 295.351562 108 293.625 105.75 292.949219 103.800781 292.425781 101.625 293.175781 101.101562 294.675781zM134.25 293.398438C132.074219 293.925781 130.574219 295.351562 130.800781 297.074219 131.023438 298.574219 132.976562 299.550781 135.226562 299.023438 137.398438 298.5 138.898438 297.074219 138.675781 295.574219 138.449219 294.148438 136.425781 293.175781 134.25 293.398438zM183.601562 6C79.574219 6 0 84.976562.0 189c0 83.175781 52.351562 154.351562 127.125 179.398438C136.726562 370.125 140.101562 364.199219 140.101562 359.324219 140.101562 354.675781 139.875 329.023438 139.875 313.273438c0 0-52.5 11.25-63.523438-22.347657.0.0-8.550781-21.824219-20.851562-27.449219.0.0-17.175781-11.777343 1.199219-11.550781.0.0 18.675781 1.5 28.949219 19.347657 16.425781 28.953124 43.953124 20.625 54.675781 15.675781 1.726562-12 6.601562-20.324219 12-25.2734380000001C110.398438 257.023438 68.101562 250.949219 68.101562 178.800781c0-20.625 5.699219-30.976562 17.699219-44.175781-1.949219-4.875-8.324219-24.976562 1.949219-50.925781 15.675781-4.875 51.75 20.25 51.75 20.25 15-4.199219 31.125-6.375 47.101562-6.375 15.972657.0 32.097657 2.175781 47.097657 6.375.0.0 36.074219-25.199219 51.75-20.25C295.726562 109.726562 289.351562 129.75 287.398438 134.625c12 13.273438 19.351562 23.625 19.351562 44.175781.0 72.375-44.175781 78.148438-86.101562 82.875 6.902343 5.92578100000003 12.75 17.175781 12.75 34.800781C233.398438 321.75 233.175781 353.023438 233.175781 359.175781c0 4.875 3.449219 10.800781 12.972657 9.07421900000003C321.148438 343.351562 372 272.175781 372 189 372 84.976562 287.625 6 183.601562 6zM72.898438 264.675781C71.925781 265.425781 72.148438 267.148438 73.425781 268.574219 74.625 269.773438 76.351562 270.300781 77.324219 269.324219 78.300781 268.574219 78.074219 266.851562 76.800781 265.425781 75.601562 264.226562 73.875 263.699219 72.898438 264.675781zM64.800781 258.601562C64.273438 259.574219 65.023438 260.773438 66.523438 261.523438 67.726562 262.273438 69.226562 262.050781 69.75 261 70.273438 260.023438 69.523438 258.824219 68.023438 258.074219 66.523438 257.625 65.324219 257.851562 64.800781 258.601562zm24.300781 26.699219C87.898438 286.273438 88.351562 288.523438 90.074219 289.949219c1.726562 1.72656199999994 3.902343 1.94921899999997 4.875.75C95.925781 289.726562 95.476562 287.476562 93.976562 286.050781 92.324219 284.324219 90.074219 284.101562 89.101562 285.300781zm-8.550781-11.027343c-1.199219.75-1.199219 2.703124.0 4.42578100000003C81.75 280.425781 83.773438 281.175781 84.75 280.425781 85.949219 279.449219 85.949219 277.5 84.75 275.773438 83.699219 274.050781 81.75 273.300781 80.550781 274.273438zm0 0"/></g></svg>