<?xml version="1.0" encoding="UTF-8" standalone="no"?>
<!-- Uploaded to: SVG Repo, www.svgrepo.com, Generator: SVG Repo Mixer Tools -->

<svg
   fill="#000000"
   width="30px"
   height="30px"
   viewBox="0 0 32 32"
   version="1.1"
   id="svg4"
   sodipodi:docname="matrix-logo-mono.svg"
   inkscape:version="1.2.2 (b0a8486541, 2022-12-01)"
   xmlns:inkscape="http://www.inkscape.org/namespaces/inkscape"
   xmlns:sodipodi="http://sodipodi.sourceforge.net/DTD/sodipodi-0.dtd"
   xmlns="http://www.w3.org/2000/svg"
   xmlns:svg="http://www.w3.org/2000/svg">
  <defs
     id="defs8" />
  <sodipodi:namedview
     id="namedview6"
     pagecolor="#ffffff"
     bordercolor="#000000"
     borderopacity="0.25"
     inkscape:showpageshadow="2"
     inkscape:pageopacity="0.0"
     inkscape:pagecheckerboard="0"
     inkscape:deskcolor="#d1d1d1"
     showgrid="false"
     inkscape:zoom="0.95125"
     inkscape:cx="399.47438"
     inkscape:cy="399.47438"
     inkscape:window-width="1920"
     inkscape:window-height="1011"
     inkscape:window-x="0"
     inkscape:window-y="0"
     inkscape:window-maximized="1"
     inkscape:current-layer="svg4" />
  <path
     d="M 3.433067,3.3426873 V 28.658142 h 1.8216912 v 0.609441 H 2.7332457 V 2.7340749 h 2.5215125 v 0.6094415 z m 7.786756,8.0238987 v 1.282729 h 0.034 c 0.341619,-0.493357 0.756205,-0.868143 1.234637,-1.136795 0.480091,-0.267822 1.037294,-0.401319 1.658344,-0.401319 0.596175,0 1.144258,0.116913 1.637615,0.345765 0.496674,0.232997 0.868143,0.643437 1.126845,1.226345 0.28109,-0.414586 0.665825,-0.781909 1.144258,-1.096994 0.48009,-0.315086 1.050561,-0.475116 1.710582,-0.475116 0.50082,0 0.962669,0.06053 1.390522,0.185735 0.431998,0.12023 0.795176,0.315085 1.10114,0.582908 0.302648,0.272797 0.539791,0.622708 0.713088,1.054707 0.168322,0.431169 0.254556,0.954377 0.254556,1.567964 v 6.330729 h -2.59448 v -5.363085 c 0,-0.315915 -0.01327,-0.617733 -0.0398,-0.898823 -0.01658,-0.254555 -0.08209,-0.50082 -0.198172,-0.729671 -0.108622,-0.208122 -0.276114,-0.38059 -0.484237,-0.491699 -0.211438,-0.126034 -0.504965,-0.185735 -0.868143,-0.185735 -0.367323,0 -0.66085,0.06882 -0.885556,0.206464 -0.21973,0.138472 -0.405465,0.328352 -0.53067,0.553058 -0.133496,0.237972 -0.21973,0.50082 -0.255385,0.768643 -0.04312,0.289381 -0.06385,0.579591 -0.06882,0.868972 v 5.272706 h -2.596138 v -5.307531 c 0,-0.28109 -0.0041,-0.557204 -0.02073,-0.829172 -0.0091,-0.262848 -0.06053,-0.517404 -0.160031,-0.759522 -0.08623,-0.232997 -0.24958,-0.427853 -0.457703,-0.557204 -0.211439,-0.138472 -0.527353,-0.211439 -0.941939,-0.211439 -0.125205,0 -0.288552,0.0257 -0.487553,0.08209 -0.199002,0.05556 -0.397174,0.159201 -0.582908,0.31094 -0.189881,0.155884 -0.354886,0.375615 -0.488383,0.66085 -0.133497,0.284406 -0.198172,0.660021 -0.198172,1.126845 v 5.48912 H 8.7704481 v -9.469975 z m 17.34711,17.290727 V 3.3418581 H 26.745242 V 2.7324166 h 2.521512 V 29.265925 h -2.521512 v -0.609441 z"
     id="path2"
     style="stroke-width:0.829172" />
</svg>
