<svg xmlns="http://www.w3.org/2000/svg" xmlns:xlink="http://www.w3.org/1999/xlink" width="30" height="30" viewBox="0 0 288 384"><g id="surface1"><path style="stroke:none;fill-rule:nonzero;fill:#000;fill-opacity:1" d="M83.550781 221.925781c-2.625 14.398438-13.050781 81.523438-16.125 100.5-.226562000000001 1.34765700000003-.75 1.875-2.25 1.875H9.226562C3.523438 324.300781-.601562 319.351562.148438 313.875L44.101562 34.949219c1.125-7.199219 7.574219-12.675781 15-12.675781 114.222657.0 123.824219-2.773438 153 8.550781 45.074219 17.476562 49.199219 59.625 33 105.226562-16.125 46.949219-54.375 67.125-105.078124 67.722657-32.546876.527343000000002-52.125-5.25-56.472657 18.152343zM267.824219 114C266.476562 113.023438 265.949219 112.648438 265.574219 114.976562 264.074219 123.523438 261.75 131.851562 258.976562 140.175781c-29.925781 85.347657-112.875 77.925781-153.375 77.925781-4.578124.0-7.578124 2.472657-8.175781 7.046876C80.476562 330.449219 77.101562 352.425781 77.101562 352.425781 76.351562 357.75 79.726562 362.101562 85.050781 362.101562h47.625c6.449219.0 11.773438-4.726562 13.050781-11.175781C146.25 346.875 144.898438 355.5 156.523438 282.449219 159.976562 265.949219 167.25 267.675781 178.5 267.675781c53.25.0 94.800781-21.601562 107.175781-84.226562C290.550781 157.351562 289.125 129.898438 267.824219 114zm0 0"/></g></svg>